<?xml version="1.0" encoding="utf-8"?>
<!-- Generator: Adobe Illustrator 24.1.1, SVG Export Plug-In . SVG Version: 6.00 Build 0)  -->
<svg version="1.1" id="Layer_1" xmlns="http://www.w3.org/2000/svg" xmlns:xlink="http://www.w3.org/1999/xlink" x="0px" y="0px"
	 viewBox="0 0 1920 1080" style="enable-background:new 0 0 1920 1080;" xml:space="preserve">
<style type="text/css">
	.st0{fill-rule:evenodd;clip-rule:evenodd;fill:#FFFFFF;stroke:#4D4D4D;stroke-width:12;stroke-miterlimit:10;}
	.st1{fill:#A67C52;}
	.st2{fill:#603813;}
	.st3{fill:#8C6239;}
	.st4{fill:#3B82F4;}
	.st5{fill:#4D4D4D;}
	.st6{fill:none;stroke:#1A1A1A;stroke-width:3;stroke-miterlimit:10;}
	.st7{fill:none;stroke:#93278F;stroke-miterlimit:10;}
	.st8{fill:#333333;}
	.st9{fill:#666666;}
	.st10{fill:#FFFFFF;stroke:#B3B3B3;stroke-miterlimit:10;}
	.st11{fill:#999999;}
	.st12{font-family:'HighTowerText-Reg';}
	.st13{font-size:33.5603px;}
	.st14{fill:#0F87EA;}
	.st15{font-size:48px;}
	.st16{fill:#1592E6;}
	.st17{fill:#FFFFFF;}
	.st18{fill:#CCCCCC;}
	.st19{fill:#FFFFFF;stroke:#AAB8C2;stroke-width:4;stroke-miterlimit:10;}
	.st20{fill:none;stroke:#AAB8C2;stroke-width:4;stroke-miterlimit:10;}
	.st21{fill:none;}
	.st22{fill:none;stroke:#4D4D4D;stroke-width:12;stroke-miterlimit:10;}
</style>
<path class="st0" d="M1324.5,955.5h-290.6c-34.1,0-61.7-27.6-61.7-61.7V121.2c0-34.1,27.6-61.7,61.7-61.7h290.6
	c34.1,0,61.7,27.6,61.7,61.7v772.6C1386.2,927.9,1358.6,955.5,1324.5,955.5z"/>
<path class="st1" d="M995.1,622.7c-0.6,3.2-1.8,7.5-1.8,7.5l0,0c0,0-12,1.3-24.4,4.1c-7.9,1.8-9.5,2.7-15.4,3.3
	c-2.5,0.3-7.4,0.8-11.7,0c-10.7-2-22-12.8-20.8-22.4c1.5-12.3,23.4-17.8,36.1-18.2c19.5-0.7,38.4,9.7,38.9,17.4
	C996.1,615.8,995.6,619.6,995.1,622.7z"/>
<path class="st2" d="M788,553.2c-16.2-12.5-32.4-25-48.5-37.5c0.7-10.6,2.4-22.8,5.8-36.1c4-15.6,9.5-28.9,14.8-39.6
	c15.4,4.2,30.9,8.4,46.3,12.6C800.3,486.1,794.1,519.7,788,553.2z"/>
<g>
	<ellipse class="st3" cx="784.9" cy="417.5" rx="48.9" ry="63.5"/>
</g>
<g>
	<path d="M832.4,431c-1.4,0-2.3-1.6-3.8-4c-1.9-3.2-4.6-7.6-10.3-11.3c-5.1-3.3-10.1-4.3-13.8-4.9c-0.6-0.1-1.2-0.2-1.7-0.3
		c-3-0.6-5.8-0.9-8.5-0.9c-5.7,0-10.4,1.4-14.9,2.7c-3,0.9-4.9,1.1-7.7,1.5c-1.9,0.2-4.3,0.5-7.9,1.2c-14.1,2.4-19.7,3.2-23.2,3.2
		c-2.3,0-3.6-0.4-4.9-1c-5.1-2.4-9.4-7.9-10.7-13.7c-4.2-17.7,18.3-39.9,39.7-46.4c5.3-1.6,10.9-2.4,16.7-2.4c9.1,0,16.4,1.9,20.4,3
		c6.9,1.8,14.7,3.9,22.5,10.4c14.4,12.1,16.5,29.6,16.8,34.6c0.7,11.7-2.6,23.1-6.1,27c-0.8,0.9-1.7,1.4-2.4,1.5L832.4,431z"/>
	<path d="M781.3,355.1L781.3,355.1c9,0,16.3,1.9,20.3,3c6.8,1.8,14.6,3.8,22.3,10.3c14.3,11.9,16.3,29.3,16.6,34.3
		c0.7,11.5-2.6,22.8-6,26.6c-0.7,0.8-1.5,1.3-2.1,1.3l-0.1,0c-1,0-1.9-1.3-3.4-3.7c-2-3.2-4.7-7.7-10.5-11.4c-5.2-3.4-10.5-4.4-14-5
		c-0.6-0.1-1.2-0.2-1.7-0.3c-3-0.6-5.8-1-8.6-1c-5.8,0-10.5,1.4-15,2.7c-3,0.9-4.8,1.1-7.6,1.5c-1.9,0.2-4.3,0.5-7.9,1.2
		c-12.3,2.1-19.3,3.2-23.1,3.2c-2.2,0-3.4-0.3-4.7-0.9c-4.9-2.3-9.1-7.7-10.5-13.3c-1.8-7.7,1.8-17.4,9.8-26.5
		c7.8-8.8,18.8-16,29.5-19.3C770,355.9,775.6,355.1,781.3,355.1 M781.3,354.1c-5.2,0-10.9,0.6-16.8,2.4c-22.6,6.9-44.1,29.7-40,47
		c1.3,5.5,5.4,11.4,11,14c1.4,0.6,2.7,1,5.1,1c3.7,0,10.1-0.9,23.3-3.2c8.7-1.5,10.4-1.1,15.6-2.6c4.5-1.3,9.1-2.6,14.7-2.6
		c2.6,0,5.3,0.3,8.4,0.9c3.5,0.7,9.4,1.4,15.4,5.2c10,6.5,10.6,15.3,14.3,15.3c0,0,0.1,0,0.1,0c5-0.3,9.8-15.3,9-29
		c-0.2-3.8-1.8-22.2-17-35c-7.8-6.6-15.7-8.6-22.7-10.5C797.9,356,790.4,354.1,781.3,354.1L781.3,354.1z"/>
</g>
<path d="M744.9,447c-0.5,7.1,3.7,13.3,1.6,16.5c-0.1,0.2-0.3,0.4-0.5,0.4c-1,0.3-3.1-1.2-10-14.4c-5-9.5-7.5-14.2-9.7-20.9
	c-4.3-12.8-3.1-17.4-1.6-20c1.6-2.9,4.4-4.6,4.7-4.9c0.2-0.1,4.5-2.7,8.5-1.8c7.5,1.8,10,15.2,10.2,16.2
	C749.6,427,746.2,428.3,744.9,447z"/>
<path class="st4" d="M818,650c-33.7-2.3-67.3-4.7-101-7c1.5-25.2-0.1-44.6-2-58c-1.2-8.7-2.6-15.9-2-27c0.9-16.3,5.5-28.3,9-37
	c3.2-8.1,8.5-19.1,17-31c3.4,6.5,9.1,15.4,18,24c12.6,12.2,25.9,18.1,34,21c6.1,14.1,12.1,30.8,17,50C814.2,609.5,817,631.6,818,650
	z"/>
<path class="st5" d="M843.1,755.5c-40.3,1.4-80.6,2.7-120.9,4.1L715.8,642c34.4,2.2,68.8,4.4,103.2,6.5
	C827,684.2,835.1,719.8,843.1,755.5z"/>
<path class="st5" d="M707.8,892.7c-2.3-2.4-5.5-5.3-9.9-7.7c-8.5-4.7-16.4-5-20.7-4.9c16.2-45.6,32.4-91.1,48.6-136.7
	c5.8-0.7,48.6-5,57.6,15.7c4.1,9.4-0.4,20.4-3.8,28.1C761.6,827.3,731.9,865.4,707.8,892.7z"/>
<path class="st5" d="M831.1,916.4c-1.9-1.6-8.7-6.8-18.1-6.2c-9.6,0.6-15.7,6.8-17.3,8.7c-4.4-54.6-8.8-109.3-13.1-163.9
	c20.2-0.1,40.3-0.1,60.5-0.2C839.1,808.6,835.1,862.5,831.1,916.4z"/>
<line class="st6" x1="778.9" y1="722.6" x2="783.3" y2="766.8"/>
<path class="st4" d="M839.2,617l-32.5,26.6L721.8,540c0.5-2.2,3.3-15.4,15.7-22.5c6.8-3.9,13.5-4.2,16.8-4.1
	C782.6,547.9,810.9,582.5,839.2,617z"/>
<path class="st4" d="M802.2,640.7l-0.1-42c35.5,3.5,74,4.4,115,1.3c6.4-0.5,12.8-1.1,19-1.7c1.4,1.8,9.8,12.3,7.5,26.3
	c-1.3,7.8-5.2,13.1-7.4,15.7c-4.8-1.4-12.1-3.3-21.2-4.3c-5-0.5-17.5-1.6-51,4c-21.2,3.5-24.8,5.4-36,5
	C817.1,644.6,808.2,642.5,802.2,640.7z"/>
<line class="st7" x1="736.5" y1="562.5" x2="798.5" y2="635.5"/>
<line class="st7" x1="775.5" y1="543.5" x2="815.8" y2="591"/>
<path class="st7" d="M732.6,546.7c1.3-2.4,3.7-6.1,7.9-9.1c9.3-6.6,19.8-4.7,22-4.2"/>
<path class="st1" d="M1017,584"/>
<path class="st8" d="M556,781"/>
<path class="st8" d="M734.3,912.3L734.3,912.3l0.4,0.2C734.6,912.4,734.5,912.3,734.3,912.3z"/>
<path class="st8" d="M726.7,943.4c10.9,5.1,23.4,1.3,27.9-8.4c4.6-9.7-0.6-21.7-11.4-26.8c-0.1-0.1-0.3-0.1-0.4-0.2l-16.5,35.2
	C726.4,943.3,726.6,943.3,726.7,943.4z"/>
<path class="st8" d="M743.8,908L743.8,908l-33.4-15.6c-5.8,11.9-11.6,23.7-17.4,35.6c11.4,5.1,22.9,10.2,34.3,15.2l0,0L743.8,908z"
	/>
<path class="st8" d="M696,928c-3.7,1-10.1,2.3-18,1c-10.1-1.6-16.9-6.5-20-9c5.9-13.7,11.9-27.4,17.8-41.1c3.9-1,12.3-2.5,21.3,1.2
	c10.1,4.1,15.1,12.3,17,15.8C708,906.6,702,917.3,696,928z"/>
<path class="st8" d="M868.2,926.6L868.2,926.6l0.4,0.1C868.4,926.7,868.3,926.6,868.2,926.6z"/>
<path class="st8" d="M861.9,958.6c11.8,2.3,23-4.3,25.1-14.8c2.1-10.5-5.7-21-17.5-23.3c-0.1,0-0.3,0-0.4-0.1l-7.6,38.1
	C861.6,958.5,861.8,958.5,861.9,958.6z"/>
<path class="st8" d="M870.1,920.4L870.1,920.4l-36.2-7.2c-2.8,12.9-5.6,25.8-8.4,38.7c12.3,2.2,24.6,4.4,37,6.6l0,0L870.1,920.4z"/>
<path class="st8" d="M827.5,951.9c-3.3,1.9-9.3,4.6-17.2,5.3c-10.2,0.8-18-2.3-21.6-4c2.5-14.7,5-29.5,7.4-44.2
	c3.5-1.9,11.3-5.4,20.9-4c10.8,1.6,17.6,8.3,20.3,11.3C834.1,928.2,830.8,940.1,827.5,951.9z"/>
<path class="st5" d="M1278.7,103h-184.4c-8.2-3.2-13.9-10.6-14.6-19c-0.9-9.7,5.1-19.2,14.6-23c61.5,0,122.9,0,184.4,0
	c1.3,1.1,9.6,8.1,10,20C1289.2,94.1,1279.8,102.1,1278.7,103z"/>
<ellipse class="st9" cx="1184" cy="84.5" rx="9" ry="4.5"/>
<path class="st10" d="M1002.7,554.7v-64.2c0-8.9,7.2-16.1,16.1-16.1H1346c8.9,0,16.1,7.2,16.1,16.1v64.2c0,8.9-7.2,16.1-16.1,16.1
	h-327.2C1009.9,570.9,1002.7,563.6,1002.7,554.7z"/>
<text transform="matrix(1.418 0 0 1 1063.3818 536.2432)" class="st11 st12 st13">Nepal</text>
<image style="overflow:visible;" width="1366" height="768" xlink:href="logo.jpg"  transform="matrix(0.2383 0 0 0.2383 1030.4628 208)">
</image>
<text transform="matrix(1 0 0 1 1058.9041 390)" class="st14 st12 st15">BLUEDOT</text>
<path class="st16" d="M1325,736.3v20.4c0,16.2-13.1,29.3-29.3,29.3h-231.4c-16.2,0-29.3-13.1-29.3-29.3v-20.4
	c0-16.2,13.1-29.3,29.3-29.3h231.4C1311.9,707,1325,720.1,1325,736.3z"/>
<text transform="matrix(1 0 0 1 1089.4492 758)" class="st17 st12 st15">Get Start</text>
<circle class="st18" cx="1319.5" cy="899.5" r="16.5"/>
<g>
	<line class="st19" x1="1314" y1="542.9" x2="1299.3" y2="529.7"/>
	<ellipse class="st20" cx="1289.2" cy="521.4" rx="13.1" ry="13.5"/>
</g>
<line class="st21" x1="-63" y1="89" x2="-63" y2="89"/>
<line class="st22" x1="1391" y1="258" x2="1391" y2="350"/>
<rect x="1181.2" y="499.5" class="st21" width="2.6" height="46.3"/>
</svg>
